<svg width="97" height="40" viewBox="0 0 97 40" fill="none" xmlns="http://www.w3.org/2000/svg">
<path fill-rule="evenodd" clip-rule="evenodd" d="M0 4C0 1.79086 1.79086 0 4 0H93C95.2091 0 97 1.79086 97 4V5C95.8954 5 95 5.89543 95 7C95 8.10457 95.8954 9 97 9V12C95.8954 12 95 12.8954 95 14C95 15.1046 95.8954 16 97 16V18C95.8954 18 95 18.8954 95 20C95 21.1046 95.8954 22 97 22V25C95.8954 25 95 25.8954 95 27C95 28.1046 95.8954 29 97 29V32C95.8954 32 95 32.8954 95 34C95 35.1046 95.8954 36 97 36C97 38.2091 95.2091 40 93 40H4C1.79086 40 0 38.2091 0 36C1.10457 36 2 35.1046 2 34C2 32.8954 1.10457 32 0 32V29C1.10457 29 2 28.1046 2 27C2 25.8954 1.10457 25 0 25V22C1.10457 22 2 21.1046 2 20C2 18.8954 1.10457 18 0 18V16C1.10457 16 2 15.1046 2 14C2 12.8954 1.10457 12 0 12V9C1.10457 9 2 8.10457 2 7C2 5.89543 1.10457 5 0 5V4Z" fill="#651FFF"/>
</svg>
