<svg width="34" height="34" viewBox="0 0 34 34" fill="none" xmlns="http://www.w3.org/2000/svg">
<path d="M17 6.6878C19.7549 6.6878 22.344 7.7605 24.2922 9.70785C26.2404 11.6552 27.3131 14.2452 27.3131 17C27.3131 19.7549 26.2404 22.344 24.2922 24.2922C22.344 26.2404 19.7549 27.3122 17 27.3122C14.2452 27.3122 11.656 26.2395 9.70785 24.2922C7.75965 22.3448 6.6878 19.7549 6.6878 17C6.6878 14.2452 7.7605 11.656 9.70785 9.70785C11.656 7.7605 14.2452 6.6878 17 6.6878ZM17 0C7.6109 0 0 7.6109 0 17C0 26.3891 7.6109 34 17 34C26.3891 34 34 26.3891 34 17C34 7.6109 26.3891 0 17 0Z" fill="#FCBF14"/>
<path d="M16.9998 11.1716C13.7809 11.1716 11.1714 13.7811 11.1714 17.0001C11.1714 20.219 13.7809 22.8285 16.9998 22.8285C20.2188 22.8285 22.8283 20.219 22.8283 17.0001C22.8283 13.7811 20.2188 11.1716 16.9998 11.1716Z" fill="#651FFF"/>
</svg>
