<svg width="378" height="40" viewBox="0 0 378 40" fill="none" xmlns="http://www.w3.org/2000/svg">
<path fill-rule="evenodd" clip-rule="evenodd" d="M0 4C0 1.79086 1.79086 0 4 0H374C376.209 0 378 1.79086 378 4V5C376.895 5 376 5.89543 376 7C376 8.10457 376.895 9 378 9V12C376.895 12 376 12.8954 376 14C376 15.1046 376.895 16 378 16V18C376.895 18 376 18.8954 376 20C376 21.1046 376.895 22 378 22V25C376.895 25 376 25.8954 376 27C376 28.1046 376.895 29 378 29V32C376.895 32 376 32.8954 376 34C376 35.1046 376.895 36 378 36C378 38.2091 376.209 40 374 40H4.00001C1.79087 40 0 38.2091 0 36C1.10457 36 2 35.1046 2 34C2 32.8954 1.10457 32 0 32V29C1.10457 29 2 28.1046 2 27C2 25.8954 1.10457 25 0 25V22C1.10457 22 2 21.1046 2 20C2 18.8954 1.10457 18 0 18V16C1.10457 16 2 15.1046 2 14C2 12.8954 1.10457 12 0 12V9C1.10457 9 2 8.10457 2 7C2 5.89543 1.10457 5 0 5V4Z" fill="#651FFF"/>
</svg>
