<svg width="202" height="40" viewBox="0 0 202 40" fill="none" xmlns="http://www.w3.org/2000/svg">
<path fill-rule="evenodd" clip-rule="evenodd" d="M0 4C0 1.79086 1.79086 0 4 0H198C200.209 0 202 1.79086 202 4V5C200.895 5 200 5.89543 200 7C200 8.10457 200.895 9 202 9V12C200.895 12 200 12.8954 200 14C200 15.1046 200.895 16 202 16V18C200.895 18 200 18.8954 200 20C200 21.1046 200.895 22 202 22V25C200.895 25 200 25.8954 200 27C200 28.1046 200.895 29 202 29V32C200.895 32 200 32.8954 200 34C200 35.1046 200.895 36 202 36C202 38.2091 200.209 40 198 40H4C1.79086 40 0 38.2091 0 36C1.10457 36 2 35.1046 2 34C2 32.8954 1.10457 32 0 32V29C1.10457 29 2 28.1046 2 27C2 25.8954 1.10457 25 0 25V22C1.10457 22 2 21.1046 2 20C2 18.8954 1.10457 18 0 18V16C1.10457 16 2 15.1046 2 14C2 12.8954 1.10457 12 0 12V9C1.10457 9 2 8.10457 2 7C2 5.89543 1.10457 5 0 5V4Z" fill="#651FFF"/>
</svg>
