<svg width="131" height="40" viewBox="0 0 131 40" fill="none" xmlns="http://www.w3.org/2000/svg">
<path fill-rule="evenodd" clip-rule="evenodd" d="M0 4C0 1.79086 1.79086 0 4 0H127C129.209 0 131 1.79086 131 4V5C129.895 5 129 5.89543 129 7C129 8.10457 129.895 9 131 9V12C129.895 12 129 12.8954 129 14C129 15.1046 129.895 16 131 16V18C129.895 18 129 18.8954 129 20C129 21.1046 129.895 22 131 22V25C129.895 25 129 25.8954 129 27C129 28.1046 129.895 29 131 29V32C129.895 32 129 32.8954 129 34C129 35.1046 129.895 36 131 36C131 38.2091 129.209 40 127 40H4C1.79086 40 0 38.2091 0 36C1.10457 36 2 35.1046 2 34C2 32.8954 1.10457 32 0 32V29C1.10457 29 2 28.1046 2 27C2 25.8954 1.10457 25 0 25V22C1.10457 22 2 21.1046 2 20C2 18.8954 1.10457 18 0 18V16C1.10457 16 2 15.1046 2 14C2 12.8954 1.10457 12 0 12V9C1.10457 9 2 8.10457 2 7C2 5.89543 1.10457 5 0 5V4Z" fill="#651FFF"/>
</svg>
