<svg width="120" height="169" viewBox="0 0 120 169" fill="none" xmlns="http://www.w3.org/2000/svg">
<path d="M60 54.604C69.723 54.604 78.861 58.39 85.737 65.263C92.613 72.136 96.399 81.277 96.399 91C96.399 100.723 92.613 109.861 85.737 116.737C78.861 123.613 69.723 127.396 60 127.396C50.277 127.396 41.139 123.61 34.263 116.737C27.387 109.864 23.604 100.723 23.604 91C23.604 81.277 27.39 72.139 34.263 65.263C41.139 58.39 50.277 54.604 60 54.604ZM60 31C26.862 31 0 57.862 0 91C0 124.138 26.862 151 60 151C93.138 151 120 124.138 120 91C120 57.862 93.138 31 60 31Z" fill="#E5E5E5" fill-opacity="0.6"/>
<path d="M60.0002 70.429C48.6392 70.429 39.4292 79.639 39.4292 91C39.4292 102.361 48.6392 111.571 60.0002 111.571C71.3612 111.571 80.5712 102.361 80.5712 91C80.5712 79.639 71.3612 70.429 60.0002 70.429Z" fill="#E5E5E5" fill-opacity="0.6"/>
<path d="M121.086 117.617V134H60.7578V120.008L88.4609 84.7812C91.1328 81.0781 93.2188 77.8438 94.7188 75.0781C96.2188 72.2656 97.2969 69.7578 97.9531 67.5547C98.6094 65.3047 98.9375 63.1953 98.9375 61.2266C98.9375 58.1797 98.5859 55.5781 97.8828 53.4219C97.1797 51.2188 96.125 49.5313 94.7188 48.3594C93.3594 47.1406 91.6719 46.5312 89.6562 46.5312C87.2188 46.5312 85.2031 47.2813 83.6094 48.7812C82.0156 50.2812 80.8203 52.3438 80.0234 54.9688C79.2734 57.5469 78.8984 60.4766 78.8984 63.7578H59.1406C59.1406 57.6172 60.3828 51.9922 62.8672 46.8828C65.3984 41.7734 68.9375 37.7188 73.4844 34.7188C78.0781 31.6719 83.5859 30.1484 90.0078 30.1484C96.2891 30.1484 101.539 31.3203 105.758 33.6641C110.023 36.0078 113.234 39.3594 115.391 43.7188C117.594 48.0312 118.695 53.1875 118.695 59.1875C118.695 62.6094 118.25 65.9375 117.359 69.1719C116.469 72.3594 115.203 75.5469 113.562 78.7344C111.922 81.875 109.906 85.0859 107.516 88.3672C105.125 91.6484 102.43 95.0469 99.4297 98.5625L86.0703 117.617H121.086Z" fill="black"/>
<circle cx="16.5" cy="67.5" r="16.5" fill="black"/>
<path d="M26.2607 69.0518V70.3262H21.0312V69.0518H26.2607ZM20.6357 64.833V64.209C20.6357 63.6055 20.7588 63.0664 21.0049 62.5918C21.2568 62.1172 21.6084 61.7451 22.0596 61.4756C22.5107 61.2002 23.0469 61.0625 23.668 61.0625C24.2949 61.0625 24.834 61.2002 25.2852 61.4756C25.7363 61.7451 26.085 62.1172 26.3311 62.5918C26.5771 63.0664 26.7002 63.6055 26.7002 64.209V64.833C26.7002 65.4365 26.5771 65.9756 26.3311 66.4502C26.0908 66.9189 25.7451 67.291 25.2939 67.5664C24.8428 67.8359 24.3066 67.9707 23.6855 67.9707C23.0586 67.9707 22.5166 67.8359 22.0596 67.5664C21.6084 67.291 21.2568 66.9189 21.0049 66.4502C20.7588 65.9756 20.6357 65.4365 20.6357 64.833ZM22.1387 64.209V64.833C22.1387 65.1787 22.1943 65.4951 22.3057 65.7822C22.417 66.0635 22.5869 66.2891 22.8154 66.459C23.0498 66.623 23.3398 66.7051 23.6855 66.7051C24.0254 66.7051 24.3066 66.623 24.5293 66.459C24.7578 66.2891 24.9248 66.0635 25.0303 65.7822C25.1416 65.4951 25.1973 65.1787 25.1973 64.833V64.209C25.1973 63.8691 25.1416 63.5586 25.0303 63.2773C24.9189 62.9902 24.749 62.7617 24.5205 62.5918C24.2979 62.4219 24.0137 62.3369 23.668 62.3369C23.3281 62.3369 23.0439 62.4219 22.8154 62.5918C22.5869 62.7617 22.417 62.9902 22.3057 63.2773C22.1943 63.5586 22.1387 63.8691 22.1387 64.209ZM19.5635 61.2031V74H16.7686L13.0508 65.5098V74H10.502V61.2031H13.2969L17.0146 69.7021V61.2031H19.5635Z" fill="white"/>
</svg>
