<svg width="319" height="313" viewBox="0 0 319 313" fill="none" xmlns="http://www.w3.org/2000/svg">
<g clip-path="url(#clip0_37_234)">
<path d="M124 10.5988C153.493 10.5988 181.212 22.083 202.069 42.9311C222.926 63.7792 234.41 91.5069 234.41 121C234.41 150.493 222.926 178.212 202.069 199.069C181.212 219.926 153.493 231.401 124 231.401C94.5069 231.401 66.7883 219.917 45.9311 199.069C25.0739 178.221 13.5988 150.493 13.5988 121C13.5988 91.5069 25.083 63.7883 45.9311 42.9311C66.7883 22.083 94.5069 10.5988 124 10.5988ZM124 -61C23.4814 -61 -58 20.4814 -58 121C-58 221.519 23.4814 303 124 303C224.519 303 306 221.519 306 121C306 20.4814 224.519 -61 124 -61Z" fill="#F5F5F5" style="mix-blend-mode:multiply"/>
<path d="M124 58.6021C89.5381 58.6021 61.6011 86.5391 61.6011 121.001C61.6011 155.462 89.5381 183.4 124 183.4C158.461 183.4 186.398 155.462 186.398 121.001C186.398 86.5391 158.461 58.6021 124 58.6021Z" fill="#F5F5F5" style="mix-blend-mode:multiply"/>
</g>
<defs>
<clipPath id="clip0_37_234">
<rect width="318.664" height="313" fill="white"/>
</clipPath>
</defs>
</svg>
